# xmcd
#
# Track frame offsets: 
#        150
#        18935
#        38516
#        60781
#        95932
#        111217
#        125008
#        155853
#        180783
#        211885
#        238252
#        256008
#        268915
#        291146
#        315077
#
# Disc length: 4444 seconds
#
# Revision: 3
# Processed by: cddbd v1.5.2PL0 Copyright (c) Steve Scherf et al.
# Submitted via: ExactAudioCopy v0.99pb5
#
DISCID=c7115a0f
DTITLE=Eric Clapton - MTV Music History (Disk 2)
DYEAR=2001
DGENRE=Rock
TTITLE0=Sunshine Of Your Love
TTITLE1=I Shot The Sheriff
TTITLE2=Let It Grow
TTITLE3=Broken Hearted
TTITLE4=Cocaine
TTITLE5=After Midnight
TTITLE6=Have You Ever Loved A Woman
TTITLE7=Little Wing
TTITLE8=Rambling On My Mind
TTITLE9=One Chance
TTITLE10=Next Time You See Her
TTITLE11=I Looked Away
TTITLE12=Nobody Knows You When You're Down And Out
TTITLE13=Pilgrim
TTITLE14=Knockin' On Heaven's Door
EXTD=
EXTT0=
EXTT1=
EXTT2=
EXTT3=
EXTT4=
EXTT5=
EXTT6=
EXTT7=
EXTT8=
EXTT9=
EXTT10=
EXTT11=
EXTT12=
EXTT13=
EXTT14=
PLAYORDER=
